<svg xmlns="http://www.w3.org/2000/svg" viewBox="0 0 24 24">
	<path d="m8.522 16.949 1.844.522c1.924.555 3.615.992 5.074 1.31L15.34 24 1.566 20.319zM16.418.001c.242-.035 1.704 1.633 3.234 3.681l2.782 3.716-6.955 3.439-2.784-3.681C11.164 5.176 9.913 3.37 9.913 3.23c0-.349 5.739-3.161 6.505-3.229"/>
	<path d="m22.434 7.4-.068 6.702-.106 6.738-3.442 1.562L15.34 24c.088-4.503.135-7.521.138-9.048v-4.115l6.956-3.439zM8.383 3.785c.065 0 .129 2.546.138 5.829v7.334l-6.955 3.371V6.878L4.905 5.35c1.843-.869 3.408-1.563 3.478-1.563z" opacity=".75"/>
</svg>
